<svg height="750" width="720" xmlns="http://www.w3.org/2000/svg">
<rect height="750" fill="#555" width="720"></rect>
<text fill="#7f7" font-family="Courier New" font-size="12" xml:space="preserve">
<tspan x="10" y="26">2 megabytes installed</tspan>
<tspan x="10" y="42"></tspan>
<tspan x="10" y="58">node_modules</tspan>
<tspan x="10" y="74">└─┬ delete@0.3.2 </tspan>
<tspan x="10" y="90">  ├── async@1.5.2 </tspan>
<tspan x="10" y="106">  ├── bluebird@3.5.0 </tspan>
<tspan x="10" y="122">  ├─┬ extend-shallow@2.0.1 </tspan>
<tspan x="10" y="138">  │ └── is-extendable@0.1.1 </tspan>
<tspan x="10" y="154">  ├── lazy-cache@1.0.4 </tspan>
<tspan x="10" y="170">  ├─┬ matched@0.4.4 </tspan>
<tspan x="10" y="186">  │ ├── arr-union@3.1.0 </tspan>
<tspan x="10" y="202">  │ ├── async-array-reduce@0.2.1 </tspan>
<tspan x="10" y="218">  │ ├── fs-exists-sync@0.1.0 </tspan>
<tspan x="10" y="234">  │ ├─┬ glob@7.1.1 </tspan>
<tspan x="10" y="250">  │ │ ├── fs.realpath@1.0.0 </tspan>
<tspan x="10" y="266">  │ │ ├─┬ inflight@1.0.6 </tspan>
<tspan x="10" y="282">  │ │ │ └── wrappy@1.0.2 </tspan>
<tspan x="10" y="298">  │ │ ├── inherits@2.0.3 </tspan>
<tspan x="10" y="314">  │ │ ├─┬ minimatch@3.0.3 </tspan>
<tspan x="10" y="330">  │ │ │ └─┬ brace-expansion@1.1.7 </tspan>
<tspan x="10" y="346">  │ │ │   ├── balanced-match@0.4.2 </tspan>
<tspan x="10" y="362">  │ │ │   └── concat-map@0.0.1 </tspan>
<tspan x="10" y="378">  │ │ ├── once@1.4.0 </tspan>
<tspan x="10" y="394">  │ │ └── path-is-absolute@1.0.1 </tspan>
<tspan x="10" y="410">  │ ├─┬ has-glob@0.1.1 </tspan>
<tspan x="10" y="426">  │ │ └─┬ is-glob@2.0.1 </tspan>
<tspan x="10" y="442">  │ │   └── is-extglob@1.0.0 </tspan>
<tspan x="10" y="458">  │ ├── is-valid-glob@0.3.0 </tspan>
<tspan x="10" y="474">  │ ├─┬ lazy-cache@2.0.2 </tspan>
<tspan x="10" y="490">  │ │ └─┬ set-getter@0.1.0 </tspan>
<tspan x="10" y="506">  │ │   └─┬ to-object-path@0.3.0 </tspan>
<tspan x="10" y="522">  │ │     └─┬ kind-of@3.1.0 </tspan>
<tspan x="10" y="538">  │ │       └── is-buffer@1.1.5 </tspan>
<tspan x="10" y="554">  │ └─┬ resolve-dir@0.1.1 </tspan>
<tspan x="10" y="570">  │   ├─┬ expand-tilde@1.2.2 </tspan>
<tspan x="10" y="586">  │   │ └── os-homedir@1.0.2 </tspan>
<tspan x="10" y="602">  │   └─┬ global-modules@0.2.3 </tspan>
<tspan x="10" y="618">  │     ├─┬ global-prefix@0.1.5 </tspan>
<tspan x="10" y="634">  │     │ ├─┬ homedir-polyfill@1.0.1 </tspan>
<tspan x="10" y="650">  │     │ │ └── parse-passwd@1.0.0 </tspan>
<tspan x="10" y="666">  │     │ ├── ini@1.3.4 </tspan>
<tspan x="10" y="682">  │     │ └─┬ which@1.2.14 </tspan>
<tspan x="10" y="698">  │     │   └── isexe@2.0.0 </tspan>
<tspan x="10" y="714">  │     └── is-windows@0.2.0 </tspan>
<tspan x="10" y="730">  └── rimraf@2.6.1</tspan>
</text>
</svg>
